<svg xmlns="http://www.w3.org/2000/svg" width="167.71832" height="125.83869" viewBox="0 0 167.71832 125.83869"><defs><style>.cls-1{fill:#c7a86d;}</style></defs><g id="Layer_2" data-name="Layer 2"><g id="Layer_1-2" data-name="Layer 1"><rect class="cls-1" x="32.92303" y="104.43635" width="32.92475" height="20.50261" rx="2.26207"/><path class="cls-1" d="M65.8495,55.66837V68.09456a2.241,2.241,0,0,1-2.16636,2.25815c-26.17357.49-47.41164,26.37966-45.037,52.1163a2.2458,2.2458,0,0,1-2.24762,2.43668H4.02952A2.25722,2.25722,0,0,1,1.767,122.81852,66.18632,66.18632,0,0,1,19.00262,74.14724a2.256,2.256,0,0,0-1.68709-3.76269H2.26207A2.26207,2.26207,0,0,1,0,68.12248V55.66837A2.26207,2.26207,0,0,1,2.26207,53.4063H63.58743A2.26207,2.26207,0,0,1,65.8495,55.66837Z"/><path class="cls-1" d="M57.09551,24.16518A24.17248,24.17248,0,1,1,32.93,0,24.201,24.201,0,0,1,57.09551,24.16518Z"/><path class="cls-1" d="M166.51905,109.34284a16.1157,16.1157,0,0,0-3.192-4.73736,15.5,15.5,0,0,0-5.79956-3.81858,19.66188,19.66188,0,0,0-6.72411-1.12767h-1.1158v-.03576h-4.94625v25.644l9.3496.01792a28.16384,28.16384,0,0,0,3.59766-.23875,14.87957,14.87957,0,0,0,3.54421-.91282,11.09,11.09,0,0,0,3.198-1.93911,9.47506,9.47506,0,0,0,3.28755-7.29111A13.618,13.618,0,0,0,166.51905,109.34284ZM154.03121,123.5491h-4.34362V101.37758h1.15149a9.69172,9.69172,0,0,1,6.27676,2.43438,14.56076,14.56076,0,0,1,4.48085,6.65258,14.10446,14.10446,0,0,1,.76373,4.51668,9.17945,9.17945,0,0,1-1.64676,5.49512,7.14957,7.14957,0,0,1-2.96533,2.309A9.52918,9.52918,0,0,1,154.03121,123.5491Z"/><path class="cls-1" d="M96.46994,102.14723l-.73283-.19032A24.07448,24.07448,0,0,0,89.789,101.167h-.97541v24.121H84.07407V101.167h-.39035a26.2716,26.2716,0,0,0-6.5144.78994l-.72331.18558.46633-2.47444h19.058Z"/><path class="cls-1" d="M129.61977,101.16838V112.4461a7.78069,7.78069,0,0,1,2.14622-2.31267,9.35132,9.35132,0,0,1,5.58174-1.59409h1.3086l.80416,3.01215h-2.15086a12.65378,12.65378,0,0,0-4.64909.69473,4.21556,4.21556,0,0,0-2.31258,2.04619,7.61357,7.61357,0,0,0-.695,2.93124c-.0237.29027-.03323.59006-.03323.89937v7.16635h-4.73948V99.66943h16.8024l.50443,2.47921-.73771-.19036a23.89271,23.89271,0,0,0-5.94328-.7899Z"/><path class="cls-1" d="M119.98938,113.81388V109.6454a21.31687,21.31687,0,0,0-4.74436-1.26576h-.00953a21.48069,21.48069,0,0,0-17.26384,5.0488,10.48084,10.48084,0,0,1-.70425-3.70689,9.092,9.092,0,0,1,.95635-4.2351,6.49728,6.49728,0,0,1,3.02659-2.82657,12.97557,12.97557,0,0,1,5.62938-1.04212,16.36923,16.36923,0,0,1,10.74456,4.1304l.78047.65668v-5.54843l-.257-.13325a13.4279,13.4279,0,0,0-3.85446-1.20866,28.17394,28.17394,0,0,0-4.76317-.39973,18.94018,18.94018,0,0,0-6.80949,1.123,14.25374,14.25374,0,0,0-4.82033,3.00736,12.43133,12.43133,0,0,0-2.87417,4.24463,13.256,13.256,0,0,0-.96611,4.85844,14.54842,14.54842,0,0,0,.69472,4.56821l-.00464.00476a21.46669,21.46669,0,0,0-3.74967,8.37024h3.91138a17.69534,17.69534,0,0,1,1.58-4.04c.09991-.18083.19983-.35689.30438-.53295h.00488c.14266.18559.29021.36165.44263.53295.019.02379.04275.04757.0618.07139a12.91526,12.91526,0,0,0,3.607,2.8218,14.86315,14.86315,0,0,0,7.06623,1.694,14.09441,14.09441,0,0,0,7.25675-1.951v1.399H119.994v-11.4728Zm-4.75389,7.61841a11.30608,11.30608,0,0,1-4.13513.80419,13.88686,13.88686,0,0,1-5.6389-1.11827,14.26619,14.26619,0,0,1-4.37771-2.95027,13.59643,13.59643,0,0,1-1.185-1.34191v-.00476a17.66467,17.66467,0,0,1,12.18676-4.868,18.0643,18.0643,0,0,1,3.14533.276h.00464Z"/></g></g></svg>